<svg xmlns="http://www.w3.org/2000/svg" width="104.499" height="83.177" viewBox="0 0 104.499 83.177"><defs><style>.a{opacity:0.851;}.b{fill:#ce652d;}</style></defs><g class="a" transform="translate(52.25 41.588)"><g transform="translate(-52.25 -41.588)"><path class="b" d="M113.645,1.461v.761l-5.975,10.544v.527c6.209,8.318,7.79,20.97,3.749,30.752-2.753,7.79-10.192,15.347-18.1,17.807A34.618,34.618,0,0,1,85,63.667l-16.05.117a1.992,1.992,0,0,1-1.523-3.163L72.7,51.366c1.582-2.109,3.925-.176,5.975-.293A19.279,19.279,0,0,0,97.42,41.116c3.046-5.213,2.929-13.3-.293-18.393A25.338,25.338,0,0,0,92.91,17.51a2.46,2.46,0,0,1,.176-2.226L100.7,2.046A4.24,4.24,0,0,1,103.1.758L112.3.7a1.464,1.464,0,0,1,1.347.761Z" transform="translate(-27.773 -0.23)"/><path class="b" d="M79.618,1.338a1.933,1.933,0,0,1,.293,2.109l-5.506,9.665a2.284,2.284,0,0,1-1.582.937c-2.343-.351-4.569-1.054-7.088-.761A19.388,19.388,0,0,0,49.335,24.3c-2.812,5.623-2.167,13.648,1.523,18.627.937,2.167,4.217,3.046,3.515,5.74-2.519,4.686-5.213,9.2-7.908,13.707a4.159,4.159,0,0,1-2.284,1.347H34.633a1.171,1.171,0,0,1-.937-.937l.117-.761L39.67,51.6c-.644-1.464-1.582-2.694-2.284-4.1-5.565-9.372-4.979-23.606,1.113-32.568S52.732,1.572,62.339.752C67.552.576,72.589.81,77.744.693,78.447.81,79.208.752,79.618,1.338Z" transform="translate(-13.896 -0.225)"/><path class="b" d="M90.22,33.577a1.933,1.933,0,0,1,.293,1.7,1.757,1.757,0,0,1-1.054,1.171,2.577,2.577,0,0,1-1.7-.234A1.7,1.7,0,0,1,87,34.866a1.816,1.816,0,0,1,.879-1.64A1.933,1.933,0,0,1,90.22,33.577Z" transform="translate(-36.037 -13.603)"/><path class="b" d="M88.514,41.606a5.9,5.9,0,0,1,5.623,3.632c1.582,3.69-1.7,6.385-3.925,8.962l-1.757.117H69.067l-.351-.117c-1.816-2.46-4.862-4.335-4.1-7.673a5.623,5.623,0,0,1,3.339-4.335,9.431,9.431,0,0,1,2.4-.469,5.69,5.69,0,0,1,5.74-2.4,6.624,6.624,0,0,1,3.339,1.757c.586-.293,1.054-.879,1.64-1.172a5.916,5.916,0,0,1,7.439,1.7Zm-5.1.117a2.694,2.694,0,0,0-2.284,1.933c.527.234,1.23-.059,1.874-.117a6.991,6.991,0,0,0,2.753-.937,2.46,2.46,0,0,0-2.4-.879Zm-8.552,0c-.644.176-1.464.293-1.7,1a10.719,10.719,0,0,0,4.686,1.054v-.351a3.046,3.046,0,0,0-3.046-1.7ZM89.51,44.359c.117,3.046-2.46,4.92-4.042,7.2l.117.117a23.606,23.606,0,0,0,3.4,0,20.15,20.15,0,0,0,2.812-3.4,3.339,3.339,0,0,0-.293-2.694,2.812,2.812,0,0,0-2.05-1.23Zm-20.091.059a2.753,2.753,0,0,0-1.992,1.523c-1.23,2.46,1.289,4.159,2.694,5.8h3.222l.234-.176c-1.523-2.226-4.217-3.983-3.983-6.853Zm17.045.879A24.953,24.953,0,0,1,80.9,46.7a29.112,29.112,0,0,0,.059,4.979.937.937,0,0,0,.937-.117l4.452-5.272c0-.293.351-.761.059-1Zm-13.882.176h-.176c.469,1.464,1.874,2.577,2.87,3.866s1.523,2.577,2.753,2.167a32.333,32.333,0,0,0,0-4.862,22.258,22.258,0,0,1-5.506-1.171Z" transform="translate(-26.716 -16.184)"/><path class="b" d="M93.082,67.022a7.439,7.439,0,0,1,0,2.343l-.41.117H72.17a4.218,4.218,0,0,1,0-2.46C79.258,66.9,86.111,66.846,93.082,67.022Z" transform="translate(-29.819 -27.659)"/><g transform="translate(4.394 72.574)"><path class="b" d="M9.726,129.83A1.035,1.035,0,0,0,10.9,131a1,1,0,0,0,1.054-.937c0-.937-.937-.879-1.464-.879V127.78c.586.059,1.406-.059,1.406-.82s-.469-.7-.937-.7a.937.937,0,0,0-1.054.879H7.734c.059-1.874,1.582-2.636,3.28-2.636s3.1.879,3.1,2.284a1.64,1.64,0,0,1-.937,1.582,1.757,1.757,0,0,1,1.172,1.7c0,1.874-1.406,2.812-3.573,2.812s-3.28-1-3.28-2.987Z" transform="translate(-7.5 -124.09)"/><path class="b" d="M24.415,124.4c2.109,0,3.515,1.406,3.515,4.1s-.879,4.335-3.515,4.335-3.514-1.992-3.514-4.276S22.54,124.4,24.415,124.4Zm1.113,4.217c0-.879.059-2.4-1.113-2.4s-1.113,1.64-1.113,2.46.234,2.343,1.113,2.343S25.527,129.965,25.527,128.617Z" transform="translate(-13.051 -124.049)"/><path class="b" d="M34.5,133.709V131.6h3.1v2.109Z" transform="translate(-18.685 -127.031)"/><path class="b" d="M46.069,126.726a.879.879,0,0,0-.937-.644c-.879,0-1.23.82-1.23,1.874a2.929,2.929,0,0,1,1.874-.586,2.636,2.636,0,0,1,2.753,2.636c0,1.992-1.406,2.87-3.222,2.87s-3.807-1.289-3.807-4.217,1.289-4.159,3.515-4.159,2.987.469,3.28,2.109Zm-2.05,3.339a1.054,1.054,0,0,0,1.054,1.054,1.113,1.113,0,1,0,.059-2.226,1.054,1.054,0,0,0-1.113,1.171Z" transform="translate(-21.584 -124.09)"/><path class="b" d="M58.515,124.4c2.109,0,3.514,1.406,3.514,4.1s-.879,4.335-3.514,4.335S55,130.843,55,128.559,56.7,124.4,58.515,124.4Zm1.113,4.217c0-.879.059-2.4-1.113-2.4s-1.113,1.64-1.113,2.46.234,2.343,1.113,2.343S59.627,129.965,59.627,128.617Z" transform="translate(-27.177 -124.049)"/><path class="b" d="M68.2,126.377a2.519,2.519,0,1,1,2.519,2.519A2.577,2.577,0,0,1,68.2,126.377Zm1.523,0a1,1,0,1,0,1-.937,1,1,0,0,0-1,.937Zm2.284,6.326H70.836l4.862-8.9h1.171Zm5.037-5.155a2.519,2.519,0,1,1-2.519,2.519,2.577,2.577,0,0,1,2.46-2.46Zm0,3.515a.967.967,0,1,0-.059,0Z" transform="translate(-32.645 -123.8)"/><path class="b" d="M101.4,128.054a2.87,2.87,0,0,1,1.347,2.577,3.089,3.089,0,0,1-3.4,3.222,4.159,4.159,0,0,1-1.406-.234l-.586.879-.586-.351.527-.82a2.812,2.812,0,0,1-1.406-2.577,3.063,3.063,0,0,1,3.4-3.222,4.333,4.333,0,0,1,1.464.234l.469-.761.586.351Zm-1.582,1.23a.879.879,0,0,0-.527-.176c-.82,0-1.054.879-1.054,1.523a3.222,3.222,0,0,0,.117.937Zm-1,2.87.469.117c.644,0,1.054-.527,1.054-1.64a2.753,2.753,0,0,0-.117-.7Z" transform="translate(-44.117 -125.126)"/><path class="b" d="M111.9,130.86v1.7h-2.4V124.3h2.4v4.1l1.523-1.816h2.812l-2.226,2.343,2.519,3.69h-2.87l-1.289-2.109Z" transform="translate(-49.753 -124.007)"/><path class="b" d="M125.339,127.8c2.109,0,3.456,1.23,3.456,3.1a3.22,3.22,0,0,1-3.4,3.222c-1.933,0-3.4-1.054-3.4-3.1A3.046,3.046,0,0,1,125.339,127.8Zm-1,3.1c0,1.113.41,1.64,1.054,1.64s1.054-.469,1.054-1.64-.41-1.523-1-1.523-1.113.879-1.113,1.582Z" transform="translate(-54.932 -125.457)"/><path class="b" d="M135.7,132.559V124.3h2.4v8.259Z" transform="translate(-60.607 -124.007)"/><path class="b" d="M145.339,127.8c2.109,0,3.456,1.23,3.456,3.1a3.22,3.22,0,0,1-3.4,3.222c-1.933,0-3.4-1.054-3.4-3.1A3.019,3.019,0,0,1,145.339,127.8Zm-1,3.1c0,1.113.41,1.64,1.054,1.64s1.054-.469,1.054-1.64-.41-1.523-1-1.523-1.113.879-1.113,1.582Z" transform="translate(-63.217 -125.457)"/><path class="b" d="M157.894,134.343a.41.41,0,0,0,.176.293.762.762,0,0,0,.527.176c.7,0,.937-.293.937-1.172v-.469a2.284,2.284,0,0,1-1.7.644,2.649,2.649,0,0,1-2.636-2.87c0-1.582.7-3.046,2.694-3.046a2.284,2.284,0,0,1,1.816.937v-.82h2.109v4.862c0,1.816-.234,3.222-3.163,3.222s-3.046-.879-3.163-1.757Zm-.293-3.4c0,.586.293,1.172.937,1.172s1-.586,1-1.23-.234-1.289-1-1.289-1,.586-1,1.347Z" transform="translate(-68.685 -125.498)"/><path class="b" d="M169,123.9h2.343v1.7H169Zm0,8.493V126.36h2.343v6.033Z" transform="translate(-74.401 -123.841)"/></g><path class="b" d="M13.178,14.017c0-4.1-1.64-10.836-2.519-13.648-.059-.293-.117-.41-.351-.41a.234.234,0,0,0-.293.234c0,.469-.234,10.661-.293,10.895s-1.582.7-1.64.059S7.028.544,7.028.486h0a.41.41,0,1,0-.82,0h0c0,.059-1.054,10.368-1.113,10.661s-1.64.644-1.64-.059S3.221.661,3.162.193s-.117-.234-.293-.234-.293.117-.41.351C1.639,3.18,0,9.916,0,14.017c0,.937-.117,3.4,1.816,4.8s1.874,1.406,2.109,3.4a44.527,44.527,0,0,1,.117,4.92c-.059,1.054-.41,14.527-.41,14.527L3.279,52.91s-.293,7.79-.293,8.142a3.119,3.119,0,0,0,.879,2.109,4.92,4.92,0,0,0,2.343.527h.761a4.92,4.92,0,0,0,2.343-.527c.644-.41.879-1,.879-2.109S9.9,52.91,9.9,52.91L9.547,41.664s-.41-13.355-.41-14.527.059-4.159.117-4.92a3.968,3.968,0,0,1,2.109-3.4c1.23-.879,1.816-3.866,1.816-4.8Z" transform="translate(0.002 0.1)"/><path class="b" d="M169.944,30.315c0,6.853.586,23.2.586,32.041,0,1-.644,1.757-3.573,1.757-1.172,0-2.987-.469-3.573-1.757-1.113-2.46.879-17.748,1.523-22.844.176-1.7,0-2.46-1.113-2.812-3.28-1.054-4.393-1.523-4.393-2.284a2.927,2.927,0,0,1,.059-.586c5.272-26.066,9.431-32.1,9.723-32.626s.586-.7.82-.7.41.117.41,1.113C170,22.934,170,22.934,170,30.2Z" transform="translate(-66.03 -0.149)"/></g></g></svg>