<svg xmlns="http://www.w3.org/2000/svg" width="154" height="39.23" viewBox="0 0 154 39.23"><defs><style>.a{opacity:0.996;}.b,.c{fill:#fff;}.c,.d{fill-rule:evenodd;}.d{fill:#f36a10;}</style></defs><g class="a"><rect class="b" width="5.473" height="33.54" transform="translate(114.645 5.636)"/><path class="c" d="M404.783,17.3h-5.864L388.2,50.856h5.864l2.313-7.623h10.947l2.378,7.623h6.027Zm-6.744,20.3,3.714-12.445v.065l3.714,12.38Z" transform="translate(-261.729 -11.664)"/><path class="c" d="M17.755,33a6.874,6.874,0,0,0,2.769-2.867,9.122,9.122,0,0,0,1.108-4.366,8.927,8.927,0,0,0-1.271-4.757A7.526,7.526,0,0,0,17.3,18.18a16.623,16.623,0,0,0-6.353-.88H0V50.856H10.849a36.726,36.726,0,0,0,6.19-.489,7.444,7.444,0,0,0,4.2-3.095A10.946,10.946,0,0,0,23,41.083,8.81,8.81,0,0,0,21.567,36,7.265,7.265,0,0,0,17.755,33ZM5.473,22.936h5.376a12.414,12.414,0,0,1,3.16.228,2.671,2.671,0,0,1,1.6,1.108,4.5,4.5,0,0,1,.619,2.443,4.268,4.268,0,0,1-.782,2.606,3.584,3.584,0,0,1-2.215,1.205,16.778,16.778,0,0,1-2.378.065H5.473ZM16.583,43.4a3.062,3.062,0,0,1-1.6,1.433,17.473,17.473,0,0,1-4.138.391H5.473V36.228h5.376a13.156,13.156,0,0,1,3.812.391,3.421,3.421,0,0,1,1.922,1.433,4.691,4.691,0,0,1,.717,2.7A4.371,4.371,0,0,1,16.583,43.4Z" transform="translate(0 -11.664)"/><path class="c" d="M275.315,21.179a9.825,9.825,0,0,0-3.649-2.932,11.725,11.725,0,0,0-4.431-.782L265.9,17.4H255.8V50.956h10.393a4.887,4.887,0,0,0,1.043-.065,13.781,13.781,0,0,0,4.431-.88,9.154,9.154,0,0,0,3.649-2.867,15.733,15.733,0,0,0,2.541-5.082,26.78,26.78,0,0,0,.945-7.526,29.876,29.876,0,0,0-.945-8.08,16.093,16.093,0,0,0-2.541-5.278Zm-2.769,18.863a7.44,7.44,0,0,1-1.271,3.16,3.974,3.974,0,0,1-1.89,1.5,7.134,7.134,0,0,1-2.15.489l-1.759.065h-4.2V23.069h2.541c1.433,0,2.541,0,3.421.065l1.108.228a5.017,5.017,0,0,1,2.606,1.6,7.59,7.59,0,0,1,1.6,3.421,23.1,23.1,0,0,1,.554,5.864,21.269,21.269,0,0,1-.586,5.8Z" transform="translate(-172.463 -11.731)"/><path class="c" d="M176.048,39.649,164.808,17.3H159.4V50.824h5.147V28.963l11.109,21.86H181.2V17.3h-5.147Z" transform="translate(-107.47 -11.664)"/><rect class="b" width="5.538" height="33.54" transform="translate(37.27 5.636)"/><path class="d" d="M78.549,0a2.052,2.052,0,0,0-1.336.717,4.17,4.17,0,0,0-.88,1.987,4.17,4.17,0,0,0-.88-1.987A1.792,1.792,0,0,0,74.118.065a1.629,1.629,0,0,0-1.271.717,3.844,3.844,0,0,0-.554,2.15,13.977,13.977,0,0,0,.945,5.245,35.22,35.22,0,0,0,3.095,5.7,45.935,45.935,0,0,0,3-5.636,12.966,12.966,0,0,0,1.043-5.31A3.942,3.942,0,0,0,79.819.717,1.629,1.629,0,0,0,78.549,0Z" transform="translate(-48.738)"/></g></svg>