<svg xmlns="http://www.w3.org/2000/svg" xmlns:xlink="http://www.w3.org/1999/xlink" width="84" height="84" viewBox="0 0 84 84"><defs><style>.a{fill:none;}.b{clip-path:url(#a);}.c{fill:#016445;fill-rule:evenodd;}</style><clipPath id="a"><rect class="a" width="84" height="84"/></clipPath></defs><g transform="translate(42 42)"><g class="b" transform="translate(-42 -42)"><path class="c" d="M53.12,26.785a4.682,4.682,0,0,1,4.448,2.458,5.267,5.267,0,0,1,.7,2.575,5.033,5.033,0,0,1-.585,2.458,5.15,5.15,0,0,1-8.778.234,5.267,5.267,0,0,1,0-5.267,4.8,4.8,0,0,1,4.214-2.458m-22.355,0a4.682,4.682,0,0,1,4.448,2.458,5.072,5.072,0,0,1,0,5.15,4.682,4.682,0,0,1-4.448,2.575,4.682,4.682,0,0,1-4.331-2.575,4.916,4.916,0,0,1-.7-2.575,5.15,5.15,0,0,1,.7-2.692,4.8,4.8,0,0,1,4.331-2.341M42,5.951A34.645,34.645,0,0,0,16.485,16.485,34.762,34.762,0,0,0,5.951,42,34.645,34.645,0,0,0,16.485,67.4,34.762,34.762,0,0,0,42,77.933,34.762,34.762,0,0,0,67.4,67.4,34.528,34.528,0,0,0,77.933,42,34.645,34.645,0,0,0,67.4,16.6,34.645,34.645,0,0,0,42,5.951M42,.8A39.678,39.678,0,0,1,71.144,12.856,39.678,39.678,0,0,1,83.2,42,39.678,39.678,0,0,1,71.144,71.144,39.678,39.678,0,0,1,42,83.2,39.678,39.678,0,0,1,12.856,71.144,39.678,39.678,0,0,1,.8,42,39.678,39.678,0,0,1,12.856,12.856,39.678,39.678,0,0,1,42,.8M65.292,38.723h5.735A28.208,28.208,0,0,1,62.483,59.44a28.208,28.208,0,0,1-20.717,8.544,28.091,28.091,0,0,1-20.6-8.544,28.208,28.208,0,0,1-8.544-20.717h5.735a22.473,22.473,0,0,0,6.906,16.62,22.59,22.59,0,0,0,16.62,6.789,22.707,22.707,0,0,0,16.5-6.789,22.473,22.473,0,0,0,6.906-16.62" transform="translate(0.136 0.136)"/></g></g></svg>