<svg xmlns="http://www.w3.org/2000/svg" xmlns:xlink="http://www.w3.org/1999/xlink" width="44.2" height="44.22" viewBox="0 0 44.2 44.22"><defs><style>.a{fill:none;}.b{clip-path:url(#a);}.c{fill:#040406;}</style><clipPath id="a"><rect class="a" width="44.2" height="44.22"/></clipPath></defs><g transform="translate(22.1 22.11)"><g class="b" transform="translate(-22.1 -22.11)"><path class="c" d="M39.5,0H4.7A4.7,4.7,0,0,0,0,4.7V39.5a4.7,4.7,0,0,0,4.7,4.7H39.5a4.7,4.7,0,0,0,4.7-4.7V4.7A4.7,4.7,0,0,0,39.5,0m-11,27.9L31.2,36l-9.1-6.6-9,6.6,3.5-10.6L7.4,18.8H18.7L22.1,8.2l3.4,10.6H36.8l-9.1,6.6-5.6,4.1Z"/></g></g></svg>