<svg xmlns="http://www.w3.org/2000/svg" width="30" height="30" style=""><rect id="backgroundrect" width="100%" height="100%" x="0" y="0" fill="none" stroke="none"/><defs><style>.a{fill:#e3e3e3;}.b,.c{fill:#161615;}.c{stroke:#161615;stroke-miterlimit:10;stroke-width:0.38px;}.d{fill:#dc111c;}</style></defs><g class="currentLayer" style=""><title>Layer 1</title><path class="a" d="M14.175823669922446,0.5494501701157796 A13.076922867297913,13.62637349615276 0 1 1 1.0989008026245317,14.17582366626854 A13.076922867297913,13.62637349615276 0 0 1 14.175823669922446,0.5494501701157796 z" id="svg_1"/><g id="svg_2" class=""><g id="svg_3"><g id="svg_4"><path class="b" d="M-110.51772890377045,-35.427540326714514 l-0.3570000000000003,0.255 a0.3570000000000003,0.3570000000000003 0 0 0 -0.05100000000000007,0.535 A4.377,4.377 0 0 1 -109.13972890377045,-30.99554032671452 a0.33100000000000046,0.33100000000000046 0 0 1 -0.2,0.3060000000000003 a2.293,2.293 0 0 0 -0.9430000000000006,0.8150000000000006 a0.3570000000000003,0.3570000000000003 0 0 0 0.4080000000000003,0.509 A2.6750000000000007,2.6750000000000007 0 0 1 -107.63972890377045,-29.186540326714514 a0.3570000000000003,0.3570000000000003 0 0 0 0.509,-0.3570000000000003 a1.4,1.4 0 0 0 -1.3,-1.248 H-108.47972890377045 c0.509,-2.114 0,-3.133 -1.554,-4.585 a0.3570000000000003,0.3570000000000003 0 0 0 -0.4840000000000003,-0.05100000000000007 z" id="svg_5"/><path class="b" d="M-107.79272788143157,-27.81153985595703 a3.5,3.5 0 0 0 -3.031,0.2 c-2.8280000000000003,1.5 -0.8660000000000008,6.165 -1.5,10.088 a10.5,10.5 0 0 1 -3.21,6.088 s1.936,0.28 5.095,-2.879 C-108.73672788143158,-16.04253985595703 -103.30872788143158,-25.92653985595703 -107.79272788143157,-27.81153985595703 z" id="svg_6"/></g><path class="c" d="M-121.62472808361053,-32.77854051589966 " id="svg_7"/></g></g><g id="svg_9" class=""><g id="svg_10"><path class="d" d="M10.837486543963058,4.665342877599274 l-0.23098732017887214,0.1909699137570418 a0.23098732017887214,0.2673578792598606 0 0 0 -0.03299818859698183,0.4006623680784983 A2.832021009588002,3.277942402017912 0 0 1 11.729084659387382,7.984474868858903 a0.21416471422746974,0.24788643707286676 0 0 1 -0.12940466116463414,0.22916389650845037 a1.4836244402525218,1.717231420568214 0 0 0 -0.6101429773912482,0.6103548223999546 a0.23098732017887214,0.2673578792598606 0 0 0 0.2639855087758537,0.3811909258915058 A1.7307873430769742,2.0033118403924886 0 0 1 12.699619618122131,9.33923790410003 a0.23098732017887214,0.2673578792598606 0 0 0 0.32933486266399337,-0.2673578792598606 a0.9058326281524345,1.0484622716072836 0 0 0 -0.8411302975701178,-0.9346292249756356 H12.156120041230668 c0.32933486266399337,-1.583178030126998 0,-2.346308783532584 -1.0054742172492028,-3.4337139395138525 a0.23098732017887214,0.2673578792598606 0 0 0 -0.3131592800184138,-0.03819398275140851 z" id="svg_11"/><path class="d" d="M12.60062571380826,10.368977987693938 a2.2645815703810848,2.6211556790182082 0 0 0 -1.9611276399500195,0.14978032451532694 c-1.8297819088679166,1.1233524338649459 -0.5603221828428634,4.61697850318493 -0.9705349587347512,7.55491956855305 a6.793744711143254,7.863467037054623 0 0 1 -2.076944811692366,4.559313078246529 s1.2526371200736508,0.20969245432145744 3.2965837431690352,-2.15608777139812 C11.989835713111193,19.182801183798304 15.50123119381352,11.780657546250893 12.60062571380826,10.368977987693938 z" id="svg_12"/></g><path class="c" d="M3.650999216847719,6.649183134123709 " id="svg_13"/></g><g class="" id="svg_14"><g id="svg_15"><g id="svg_10" transform=""><path class="d" d="M15.502287786304123,5.8442198896629485 l-0.23098736331147052,0.18514900369223608 a0.23098736331147052,0.2592086051691305 0 0 0 -0.032998194758781484,0.3884498704915532 A2.8320215384154093,3.178028192787898 0 0 1 16.39388606821787,9.06218218128643 a0.21416475421875866,0.2403306675377669 0 0 1 -0.1294046853285546,0.22217880443068316 a1.4836247172918744,1.664888884181551 0 0 0 -0.6101430913241358,0.5917507372908739 a0.23098736331147052,0.2592086051691305 0 0 0 0.26398555807025087,0.3695719328601878 A1.7307876662694146,1.9422493524577633 0 0 1 17.364421208182023,10.375650995714874 a0.23098736331147052,0.2592086051691305 0 0 0 0.32933492416117155,-0.2592086051691305 a0.9058327972998816,1.0165043339965862 0 0 0 -0.8411304546356048,-0.9061410063055297 H16.820921529802092 c0.32933492416117155,-1.534921544334846 0,-2.2747914845795023 -1.0054744050028686,-3.3290516938388195 a0.23098736331147052,0.2592086051691305 0 0 0 -0.3131593384951026,-0.03702980073844747 z" id="svg_11" transform=""/><path class="d" d="M17.26542728538288,11.374003808409395 a2.2645819932496996,2.5412608349914647 0 0 0 -1.9611280061542398,0.14521490485665595 c-1.829782250545757,1.0891117864249145 -0.560322287472644,4.476249442206395 -0.9705351399641599,7.324639800969684 a6.793745979749094,7.623782504974395 0 0 1 -2.076945199523297,4.4203417038365815 s1.252637353980405,0.2033008667993178 3.2965843587449184,-2.090368555411551 C16.654637170632103,19.91917488469926 20.166033307022413,12.742654286683374 17.26542728538288,11.374003808409395 z" id="svg_12" transform=""/></g><path class="c" d="M8.31579911724555,7.767591167126835 " id="svg_13" transform=""/></g></g></g></svg>