<svg xmlns="http://www.w3.org/2000/svg" width="30" height="30" viewBox="0 0 30 30"><defs><style>.a{fill:#e3e3e3;}.b,.c{fill:#161615;}.c{stroke:#161615;stroke-miterlimit:10;stroke-width:0.38px;}.d{fill:#dc111c;}</style></defs><path class="a" d="M15,0A15,15,0,1,1,0,15,15,15,0,0,1,15,0Z"/><g transform="translate(11.434 15)"><g transform="translate(-7.784 -12.038)"><g transform="translate(6.088)"><path class="b" d="M42.122-.01l-.357.255a.357.357,0,0,0-.051.535A4.377,4.377,0,0,1,43.5,4.422a.331.331,0,0,1-.2.306,2.293,2.293,0,0,0-.943.815.357.357,0,0,0,.408.509A2.675,2.675,0,0,1,45,6.231a.357.357,0,0,0,.509-.357,1.4,1.4,0,0,0-1.3-1.248H44.16c.509-2.114,0-3.133-1.554-4.585a.357.357,0,0,0-.484-.051Z" transform="translate(-37.103 0.082)"/><path class="b" d="M31.644,29.359a3.5,3.5,0,0,0-3.031.2c-2.828,1.5-.866,6.165-1.5,10.088a10.5,10.5,0,0,1-3.21,6.088s1.936.28,5.095-2.879C30.7,41.128,36.128,31.244,31.644,29.359Z" transform="translate(-23.9 -21.671)"/></g><path class="c" d="M0,10.6" transform="translate(0 -7.879)"/></g></g><g transform="translate(11.434 15)"><g transform="translate(-7.783 -12.037)"><g transform="translate(6.088)"><path class="d" d="M42.122-.01l-.357.255a.357.357,0,0,0-.051.535A4.377,4.377,0,0,1,43.5,4.422a.331.331,0,0,1-.2.306,2.293,2.293,0,0,0-.943.815.357.357,0,0,0,.408.509A2.675,2.675,0,0,1,45,6.231a.357.357,0,0,0,.509-.357,1.4,1.4,0,0,0-1.3-1.248H44.16c.509-2.114,0-3.133-1.554-4.585a.357.357,0,0,0-.484-.051Z" transform="translate(-37.103 0.082)"/><path class="d" d="M31.644,29.359a3.5,3.5,0,0,0-3.031.2c-2.828,1.5-.866,6.165-1.5,10.088a10.5,10.5,0,0,1-3.21,6.088s1.936.28,5.095-2.879C30.7,41.128,36.127,31.244,31.644,29.359Z" transform="translate(-23.9 -21.671)"/></g><path class="c" d="M0,10.6" transform="translate(0 -7.879)"/></g></g></svg>