<svg xmlns="http://www.w3.org/2000/svg" width="30" height="30" viewBox="0 0 30 30"><defs><style>.a{fill:#e3e3e3;}.b{fill:#161615;}.c{fill:#181817;}.d{fill:#197bc1;}</style></defs><path class="a" d="M15,0A15,15,0,1,1,0,15,15,15,0,0,1,15,0Z"/><g transform="translate(15 15)"><g transform="translate(-3.541 -8.975)"><rect class="b" width="7.061" height="11.818" rx="0.405" transform="translate(0.02 6.131)"/><path class="b" d="M9.237,0H4.684A.384.384,0,0,0,4.3.382v.749H9.642V.382A.384.384,0,0,0,9.237,0Z" transform="translate(-3.43 0.003)"/><path class="c" d="M7.082,13.327H0L.87,11H6.212Z" transform="translate(0 -8.774)"/></g></g><g transform="translate(15 14.996)"><g transform="translate(-3.54 -8.972)"><rect class="d" width="7.059" height="11.814" rx="0.405" transform="translate(0.02 6.129)"/><path class="d" d="M9.235,0H4.684A.384.384,0,0,0,4.3.382v.748H9.64V.382A.384.384,0,0,0,9.235,0Z" transform="translate(-3.43 0.003)"/><path class="d" d="M7.079,13.326H0L.87,11h5.34Z" transform="translate(0 -8.775)"/></g></g></svg>