<svg xmlns="http://www.w3.org/2000/svg" width="30" height="30" viewBox="0 0 30 30"><defs><style>.a{fill:#e3e3e3;}.b{fill:#161615;}.c{fill:#aa5d09;}</style></defs><path class="a" d="M15,0A15,15,0,1,1,0,15,15,15,0,0,1,15,0Z"/><g transform="translate(15.001 15)"><g transform="translate(-5.106 -8.759)"><path class="b" d="M9.576,38.584a.268.268,0,0,1,.379.246,9.293,9.293,0,0,1-.29,3.08,6.02,6.02,0,0,1-1.741,2.768,6.228,6.228,0,0,1-.6.6l-.58.446-.558.29-.647.268a1.027,1.027,0,0,0-.446.4c-.089.134-.134.29-.223.424a.714.714,0,0,1-.938-.134.67.67,0,0,1-.089-.268c0-.156,0-.424-.179-.491A6.919,6.919,0,0,1,2.388,45.5,5.335,5.335,0,0,1,.915,43.851,7.5,7.5,0,0,1,0,39.923a6.8,6.8,0,0,1,.045-.714c.022-.246.067-.4.112-.67a.357.357,0,0,1,.424-.268,20.918,20.918,0,0,0,3.973.4C6.563,38.74,8.75,38.918,9.576,38.584Z" transform="translate(0 -29.71)"/><path class="b" d="M5.551,3.152A3.46,3.46,0,0,0,3.988.049L3.832-.04c-.469-.089-.737.357-.8.714a.536.536,0,0,0,.357.67l.826.335a1.585,1.585,0,0,1,.915,1.183,2.35,2.35,0,0,1,.022.268,8.209,8.209,0,0,0-3.5.848A3.594,3.594,0,0,0,.082,6.321a.335.335,0,0,0,.112.313c.424.379,1.116.536,5,.714,4.844.246,4.955-.29,5.067-.759S9.613,3.42,5.551,3.152Z" transform="translate(-0.06 0.052)"/></g></g><g transform="translate(15 14.953)"><g transform="translate(-5.133 -8.805)"><path class="c" d="M9.627,38.585a.269.269,0,0,1,.381.247,9.343,9.343,0,0,1-.292,3.1,6.052,6.052,0,0,1-1.75,2.783,6.26,6.26,0,0,1-.606.606l-.583.449-.561.292-.651.269a1.032,1.032,0,0,0-.449.4c-.09.135-.135.292-.224.426a.718.718,0,0,1-.942-.135.673.673,0,0,1-.09-.269c0-.157,0-.426-.18-.494A6.956,6.956,0,0,1,2.4,45.542,5.363,5.363,0,0,1,.92,43.881,7.536,7.536,0,0,1,0,39.932a6.839,6.839,0,0,1,.045-.718c.022-.247.067-.4.112-.673a.359.359,0,0,1,.426-.269,21.029,21.029,0,0,0,3.994.4C6.6,38.742,8.8,38.922,9.627,38.585Z" transform="translate(0 -29.665)"/><path class="c" d="M5.58,3.169A3.478,3.478,0,0,0,4.009.05L3.852-.04c-.471-.09-.741.359-.808.718a.539.539,0,0,0,.359.673l.83.337a1.593,1.593,0,0,1,.92,1.189,2.363,2.363,0,0,1,.022.269A8.252,8.252,0,0,0,1.653,4,3.613,3.613,0,0,0,.082,6.355a.337.337,0,0,0,.112.314c.426.381,1.122.539,5.027.718,4.869.247,4.982-.292,5.094-.763S9.664,3.438,5.58,3.169Z" transform="translate(-0.06 0.052)"/></g></g></svg>