<svg xmlns="http://www.w3.org/2000/svg" width="30" height="30" viewBox="0 0 30 30"><defs><style>.a{fill:#e3e3e3;}.b{fill:#0f0e0b;}.c{fill:#161615;}.d{fill:#d18d00;}</style></defs><path class="a" d="M15,0A15,15,0,1,1,0,15,15,15,0,0,1,15,0Z"/><g transform="translate(15.001 15)"><g transform="translate(-6.663 -9.714)"><path class="b" d="M21.9,3.278C21.877,2.306,23.173.687,23.432.385l.238-.3a.194.194,0,0,1,.281,0l.238.3c.151.194,1.512,1.9,1.555,2.872a1.886,1.886,0,0,1-1.922,1.771h-.043A1.849,1.849,0,0,1,21.9,3.278Z" transform="translate(-17.168 -0.022)"/><path class="b" d="M5.138,21.936a2.159,2.159,0,0,0,1.619.821,1.663,1.663,0,0,0,.972-.3A1.5,1.5,0,0,0,7.815,20.1c-.734-.864-2.721-1.36-3.131-1.49l-.453-.13a.194.194,0,0,0-.238.216l.086.41A7.88,7.88,0,0,0,5.138,21.936Z" transform="translate(-3.128 -14.491)"/><path class="b" d="M1.138,62.414a2.159,2.159,0,0,0,1.619.821,1.663,1.663,0,0,0,.972-.3,1.5,1.5,0,0,0,.086-2.354A7.268,7.268,0,0,0,.684,59.11l-.453-.13a.194.194,0,0,0-.238.216l.086.41A7.809,7.809,0,0,0,1.138,62.414Z" transform="translate(0.009 -46.246)"/><path class="b" d="M42.095,60.579a1.5,1.5,0,0,0,.086,2.354,1.663,1.663,0,0,0,.972.3,2.159,2.159,0,0,0,1.619-.821,7.953,7.953,0,0,0,1.058-2.807l.086-.41a.194.194,0,0,0-.238-.216l-.453.13C44.816,59.218,42.743,59.8,42.095,60.579Z" transform="translate(-32.592 -46.246)"/><path class="c" d="M26.017,40.6c-1.1,0-1.317-1.4-1.317-2.008l.669-10.948a.648.648,0,0,1,1.3,0L27.334,38.6C27.334,39.2,27.118,40.6,26.017,40.6Z" transform="translate(-19.365 -21.175)"/><path class="b" d="M38.095,20.079a1.5,1.5,0,0,0,.086,2.354,1.663,1.663,0,0,0,.972.3,2.159,2.159,0,0,0,1.619-.821,7.953,7.953,0,0,0,1.058-2.807l.086-.41a.194.194,0,0,0-.238-.216l-.453.13C40.816,18.74,38.743,19.323,38.095,20.079Z" transform="translate(-29.456 -14.491)"/><path class="b" d="M3.138,42.214a2.159,2.159,0,0,0,1.619.821,1.663,1.663,0,0,0,.972-.3,1.5,1.5,0,0,0,.086-2.354A7.268,7.268,0,0,0,2.684,38.91l-.453-.13A.194.194,0,0,0,1.993,39l.086.41A7.953,7.953,0,0,0,3.138,42.214Z" transform="translate(-1.559 -30.408)"/><path class="b" d="M40.095,40.379a1.5,1.5,0,0,0,.086,2.354,1.663,1.663,0,0,0,.972.3,2.159,2.159,0,0,0,1.619-.821,7.953,7.953,0,0,0,1.058-2.807l.086-.41a.194.194,0,0,0-.238-.216l-.453.13C42.816,39.018,40.743,39.6,40.095,40.379Z" transform="translate(-31.024 -30.408)"/></g></g><g transform="translate(15 15)"><g transform="translate(-6.664 -9.716)"><path class="d" d="M21.9,3.279C21.877,2.307,23.173.687,23.432.385l.238-.3a.194.194,0,0,1,.281,0l.238.3c.151.194,1.512,1.9,1.555,2.872a1.886,1.886,0,0,1-1.922,1.771h-.043A1.849,1.849,0,0,1,21.9,3.279Z" transform="translate(-17.168 -0.022)"/><path class="d" d="M5.138,21.936a2.16,2.16,0,0,0,1.62.821,1.663,1.663,0,0,0,.972-.3A1.5,1.5,0,0,0,7.816,20.1c-.734-.864-2.721-1.361-3.131-1.49l-.454-.13a.194.194,0,0,0-.238.216l.086.41A7.881,7.881,0,0,0,5.138,21.936Z" transform="translate(-3.128 -14.49)"/><path class="d" d="M1.138,62.414a2.16,2.16,0,0,0,1.62.821,1.663,1.663,0,0,0,.972-.3,1.5,1.5,0,0,0,.086-2.354A7.269,7.269,0,0,0,.684,59.11l-.454-.13a.194.194,0,0,0-.238.216l.086.41A7.81,7.81,0,0,0,1.138,62.414Z" transform="translate(0.009 -46.244)"/><path class="d" d="M42.095,60.579a1.5,1.5,0,0,0,.086,2.354,1.663,1.663,0,0,0,.972.3,2.16,2.16,0,0,0,1.62-.821,7.954,7.954,0,0,0,1.058-2.807l.086-.41a.194.194,0,0,0-.238-.216l-.454.13C44.816,59.218,42.743,59.8,42.095,60.579Z" transform="translate(-32.591 -46.244)"/><path class="d" d="M26.017,40.605c-1.1,0-1.317-1.4-1.317-2.008l.669-10.949a.648.648,0,1,1,1.3,0L27.335,38.6C27.335,39.2,27.119,40.605,26.017,40.605Z" transform="translate(-19.364 -21.174)"/><path class="d" d="M38.095,20.079a1.5,1.5,0,0,0,.086,2.354,1.663,1.663,0,0,0,.972.3,2.16,2.16,0,0,0,1.62-.821,7.954,7.954,0,0,0,1.058-2.807l.086-.41a.194.194,0,0,0-.238-.216l-.454.13C40.816,18.74,38.743,19.323,38.095,20.079Z" transform="translate(-29.455 -14.49)"/><path class="d" d="M3.138,42.214a2.16,2.16,0,0,0,1.62.821,1.663,1.663,0,0,0,.972-.3,1.5,1.5,0,0,0,.086-2.354A7.269,7.269,0,0,0,2.684,38.91l-.454-.13A.194.194,0,0,0,1.993,39l.086.41A7.954,7.954,0,0,0,3.138,42.214Z" transform="translate(-1.559 -30.407)"/><path class="d" d="M40.095,40.379a1.5,1.5,0,0,0,.086,2.354,1.663,1.663,0,0,0,.972.3,2.16,2.16,0,0,0,1.62-.821,7.954,7.954,0,0,0,1.058-2.807l.086-.41a.194.194,0,0,0-.238-.216l-.454.13C42.816,39.018,40.743,39.6,40.095,40.379Z" transform="translate(-31.023 -30.407)"/></g></g></svg>