<svg xmlns="http://www.w3.org/2000/svg" width="371.5" height="295.697" viewBox="0 0 371.5 295.697"><defs><style>.a{fill:#ce652d;}</style></defs><g transform="translate(185.75 147.848)"><g transform="translate(-185.75 -147.848)"><path class="a" d="M232.706,3.41V6.117L211.465,43.6v1.874c22.073,29.57,27.7,74.549,13.327,109.324-9.787,27.7-36.233,54.558-64.345,63.3a123.07,123.07,0,0,1-29.57,6.455l-57.057.416a7.08,7.08,0,0,1-5.414-11.245l18.742-32.9c5.622-7.5,13.952-.625,21.24-1.041,27.487,2.082,53.309-10.828,66.636-35.4,10.828-18.533,10.412-47.27-1.041-65.386-3.54-6.664-9.579-12.911-14.993-18.533a8.746,8.746,0,0,1,.625-7.913L186.685,5.492c2.707-2.082,5.206-4.581,8.538-4.581L227.916.7a5.206,5.206,0,0,1,4.79,2.707Z" transform="translate(72.575 0.963)"/><path class="a" d="M197.331,3.008a6.872,6.872,0,0,1,1.041,7.5L178.8,44.864a8.121,8.121,0,0,1-5.622,3.332c-8.329-1.249-16.243-3.748-25.2-2.707A68.926,68.926,0,0,0,89.672,84.637c-10,19.991-7.7,48.519,5.414,66.219,3.332,7.7,14.993,10.828,12.494,20.407-8.954,16.659-18.533,32.693-28.112,48.727a14.785,14.785,0,0,1-8.121,4.789H37.4a4.165,4.165,0,0,1-3.332-3.332l.417-2.707,20.824-37.066c-2.291-5.206-5.622-9.579-8.121-14.577-19.783-33.318-17.7-83.919,3.956-115.78S101.75,3.841,135.9.926c18.533-.625,36.441.208,54.766-.208C193.166,1.134,195.873.926,197.331,3.008Z" transform="translate(36.316 0.948)"/><path class="a" d="M98.456,35.105A6.871,6.871,0,0,1,99.5,41.144a6.247,6.247,0,0,1-3.748,4.165,9.163,9.163,0,0,1-6.039-.833A6.039,6.039,0,0,1,87,39.687a6.455,6.455,0,0,1,3.124-5.831,6.872,6.872,0,0,1,8.329,1.249Z" transform="translate(94.167 35.903)"/><path class="a" d="M149.882,47.727c8.538,0,17.075,4.789,19.991,12.911,5.623,13.119-6.039,22.7-13.952,31.86l-6.247.416H80.747L79.5,92.5c-6.455-8.746-17.284-15.41-14.577-27.279a19.991,19.991,0,0,1,11.87-15.41,33.525,33.525,0,0,1,8.538-1.666c5-6.455,12.078-10.2,20.407-8.538,4.581.416,8.121,3.332,11.869,6.247,2.082-1.041,3.748-3.124,5.831-4.165a21.032,21.032,0,0,1,26.446,6.039Zm-18.117.416a9.579,9.579,0,0,0-8.121,6.872c1.874.833,4.373-.208,6.664-.417a24.855,24.855,0,0,0,9.787-3.332,8.746,8.746,0,0,0-8.538-3.124Zm-30.4,0c-2.291.625-5.206,1.041-6.039,3.54a38.107,38.107,0,0,0,16.659,3.748V54.182a10.828,10.828,0,0,0-10.828-6.039Zm52.059,9.371c.416,10.828-8.746,17.492-14.368,25.613l.416.416a83.909,83.909,0,0,0,12.078,0,71.634,71.634,0,0,0,10-12.078,11.869,11.869,0,0,0-1.041-9.579,10,10,0,0,0-7.288-4.373ZM82,57.722a9.787,9.787,0,0,0-7.08,5.414C70.544,71.882,79.5,77.921,84.5,83.752H95.949l.833-.625c-5.414-7.913-14.993-14.16-14.16-24.364Zm60.6,3.124a88.711,88.711,0,0,1-19.783,5,103.516,103.516,0,0,0,.208,17.7,3.332,3.332,0,0,0,3.332-.416l15.826-18.741c0-1.041,1.249-2.707.208-3.54Zm-49.352.625h-.625c1.666,5.206,6.664,9.162,10.2,13.744s5.414,9.162,9.787,7.7a114.962,114.962,0,0,0,0-17.284A79.132,79.132,0,0,1,93.033,61.47Z" transform="translate(69.813 42.648)"/><path class="a" d="M146.979,67.3a26.451,26.451,0,0,1,0,8.33l-1.458.416H72.639a14.994,14.994,0,0,1,0-8.746C97.836,66.888,122.2,66.68,146.979,67.3Z" transform="translate(77.921 72.63)"/><g transform="translate(15.623 258.006)"><path class="a" d="M15.413,143.45a4.165,4.165,0,0,0,1.041,3.124,4.165,4.165,0,0,0,3.124,1.041,3.54,3.54,0,0,0,3.748-3.332c0-3.332-3.332-3.124-5.206-3.124v-5c2.082.208,5-.208,5-2.915s-1.666-2.5-3.332-2.5a3.332,3.332,0,0,0-3.748,3.124h-7.7c.208-6.664,5.622-9.371,11.661-9.371s11.037,3.123,11.037,8.121a5.831,5.831,0,0,1-3.332,5.622,6.247,6.247,0,0,1,4.165,6.039c0,6.664-5,10-12.7,10S7.5,150.738,7.5,143.658Z" transform="translate(-7.5 -123.042)"/><path class="a" d="M33.394,124.4c7.5,0,12.494,5,12.494,14.577s-3.124,15.409-12.494,15.409-12.494-7.08-12.494-15.2S26.731,124.4,33.394,124.4Zm3.957,14.993c0-3.123.208-8.538-3.957-8.538s-3.956,5.831-3.956,8.746.833,8.33,3.956,8.33S37.351,144.182,37.351,139.393Z" transform="translate(7.004 -123.15)"/><path class="a" d="M34.5,139.1v-7.5H45.537v7.5Z" transform="translate(21.724 -115.357)"/><path class="a" d="M57.742,132.413a3.124,3.124,0,0,0-3.332-2.291c-3.124,0-4.373,2.915-4.373,6.664A10.412,10.412,0,0,1,56.7,134.7a9.371,9.371,0,0,1,9.787,9.371c0,7.08-5,10.2-11.453,10.2S41.5,149.7,41.5,139.285,46.081,124.5,53.994,124.5s10.62,1.666,11.661,7.5Zm-7.288,11.87a3.748,3.748,0,0,0,3.748,3.748,3.958,3.958,0,1,0,.208-7.913,3.748,3.748,0,0,0-3.957,4.165Z" transform="translate(29.3 -123.042)"/><path class="a" d="M67.494,124.4c7.5,0,12.494,5,12.494,14.577s-3.124,15.409-12.494,15.409S55,147.306,55,139.185,61.039,124.4,67.494,124.4Zm3.956,14.993c0-3.123.208-8.538-3.956-8.538s-3.957,5.831-3.957,8.746.833,8.33,3.957,8.33S71.451,144.182,71.451,139.393Z" transform="translate(43.913 -123.15)"/><path class="a" d="M68.2,132.962a8.954,8.954,0,1,1,8.954,8.954A9.162,9.162,0,0,1,68.2,132.962Zm5.414,0a3.547,3.547,0,1,0,3.54-3.332A3.54,3.54,0,0,0,73.614,132.962Zm8.121,22.489H77.571L94.854,123.8h4.165Zm17.908-18.325a8.954,8.954,0,1,1-8.954,8.954,9.163,9.163,0,0,1,8.746-8.746Zm0,12.494a3.437,3.437,0,1,0-.208,0Z" transform="translate(58.2 -123.8)"/><path class="a" d="M115.481,130.748a10.2,10.2,0,0,1,4.789,9.163c0,7.7-5.414,11.453-12.078,11.453a14.786,14.786,0,0,1-5-.833l-2.082,3.123L99.03,152.4l1.874-2.915a10,10,0,0,1-5-9.163c0-7.5,5-11.453,12.078-11.453a15.41,15.41,0,0,1,5.206.833L114.856,127l2.082,1.25Zm-5.623,4.373a3.122,3.122,0,0,0-1.874-.625c-2.915,0-3.748,3.124-3.748,5.414a11.454,11.454,0,0,0,.416,3.332Zm-3.54,10.2,1.666.416c2.291,0,3.748-1.874,3.748-5.83a9.787,9.787,0,0,0-.417-2.5Z" transform="translate(88.175 -120.336)"/><path class="a" d="M118.038,147.622v6.039H109.5V124.3h8.538v14.577l5.414-6.455h10l-7.913,8.33,8.954,13.119h-10.2l-4.581-7.5Z" transform="translate(102.902 -123.259)"/><path class="a" d="M133.87,127.8c7.5,0,12.286,4.373,12.286,11.037s-5.206,11.453-12.078,11.453S122,146.541,122,139.253,126.79,127.8,133.87,127.8Zm-3.54,11.037c0,3.956,1.458,5.83,3.748,5.83s3.748-1.666,3.748-5.83-1.458-5.414-3.54-5.414-3.956,3.123-3.956,5.622Z" transform="translate(116.431 -119.47)"/><path class="a" d="M135.7,153.661V124.3h8.538v29.361Z" transform="translate(131.26 -123.259)"/><path class="a" d="M153.869,127.8c7.5,0,12.286,4.373,12.286,11.037s-5.206,11.453-12.078,11.453S142,146.541,142,139.253,146.581,127.8,153.869,127.8Zm-3.54,11.037c0,3.956,1.458,5.83,3.748,5.83s3.748-1.666,3.748-5.83-1.458-5.414-3.54-5.414-3.956,3.123-3.956,5.622Z" transform="translate(138.079 -119.47)"/><path class="a" d="M164.779,150.806a1.458,1.458,0,0,0,.625,1.041,2.707,2.707,0,0,0,1.874.625c2.5,0,3.332-1.041,3.332-4.165v-1.666a8.12,8.12,0,0,1-6.039,2.291c-5.83,0-9.37-4.581-9.37-10.2s2.5-10.828,9.579-10.828a8.121,8.121,0,0,1,6.455,3.332v-2.915h7.5V145.6c0,6.455-.833,11.453-11.245,11.453s-10.828-3.124-11.245-6.247Zm-1.041-12.078c0,2.082,1.041,4.165,3.332,4.165s3.54-2.082,3.54-4.373-.833-4.581-3.54-4.581-3.54,2.082-3.54,4.789Z" transform="translate(152.366 -119.362)"/><path class="a" d="M169,123.9h8.33v6.039H169Zm0,30.194V132.646h8.33v21.448Z" transform="translate(167.303 -123.692)"/></g><path class="a" d="M46.856,50.085c0-14.577-5.831-38.524-8.954-48.519C37.693.525,37.485.108,36.652.108a.833.833,0,0,0-1.041.833c0,1.666-.833,37.9-1.041,38.732s-5.622,2.5-5.831.208-3.748-37.691-3.748-37.9h0a1.458,1.458,0,1,0-2.915,0h0c0,.208-3.748,36.858-3.956,37.9s-5.831,2.291-5.831-.208S11.456,2.607,11.247.941,10.831.108,10.206.108,9.165.525,8.748,1.358C5.833,11.561,0,35.509,0,50.085c0,3.332-.416,12.078,6.455,17.075s6.664,5,7.5,12.078a158.3,158.3,0,0,1,.416,17.492c-.208,3.748-1.458,51.643-1.458,51.643l-1.249,39.982s-1.041,27.7-1.041,28.945.833,6.039,3.124,7.5a17.492,17.492,0,0,0,8.329,1.874h2.707a17.492,17.492,0,0,0,8.329-1.874c2.291-1.458,3.124-3.54,3.124-7.5s-1.041-28.945-1.041-28.945l-1.249-39.982s-1.458-47.478-1.458-51.643.208-14.785.416-17.492c.833-7.08,3.124-8.954,7.5-12.078s6.455-13.744,6.455-17.075Z" transform="translate(0.002 0.1)"/><path class="a" d="M196.883,106.493c0,24.364,2.082,82.462,2.082,113.906,0,3.54-2.291,6.247-12.7,6.247-4.165,0-10.62-1.666-12.7-6.247-3.956-8.746,3.124-63.1,5.414-81.212.625-6.039,0-8.746-3.957-10-11.661-3.748-15.618-5.414-15.618-8.121a10.416,10.416,0,0,1,.208-2.082C178.35,26.321,193.134,4.873,194.175,3S196.258.5,197.091.5s1.458.416,1.458,3.957c-1.458,75.8-1.458,75.8-1.458,101.62Z" transform="translate(172.535 0.749)"/></g></g></svg>