<svg xmlns="http://www.w3.org/2000/svg" width="248.482" height="250.259" viewBox="0 0 248.482 250.259"><defs><style>.a{fill:#fff;}</style></defs><g transform="translate(-139.94 -313.879)"><path class="a" d="M322.746,403.5c1.549-1.625,2.776-2.967,4.06-4.251q22.07-22.09,44.145-44.175c2.718-2.726,4.368-5.889.991-9.1-3.224-3.06-6.265-1.779-9.1,1.116-6.641,6.783-13.444,13.4-20.1,20.173-9.207,9.362-18.339,18.8-27.921,28.631l-6.763-7.549c1.036-1.114,2.108-2.343,3.258-3.493q21.2-21.193,42.4-42.386c1.515-1.52,3.523-3.137,3.937-5.011.461-2.083.1-5.358-1.271-6.556-1.4-1.231-4.508-.949-6.758-.6-1.23.188-2.271,1.835-3.329,2.892q-16.785,16.776-33.53,33.59c-4.409,4.45-8.65,9.068-12.6,13.218l-7.7-6.11c1.6-1.728,2.676-2.961,3.828-4.115q21.881-21.922,43.783-43.825c3.8-3.8,4.384-7.642,1.56-10.354-2.794-2.685-6.239-2.251-10.029,1.527q-32.2,32.1-64.3,64.294c-9.273,9.36-9.921,19.374-2.562,30.187.365.537.637,1.139,1.072,1.926-1.114,1.275-2.128,2.585-3.291,3.745q-58,57.866-116,115.734a26.6,26.6,0,0,0-4.546,5.89,16.3,16.3,0,0,0,3.422,20.071,16.129,16.129,0,0,0,19.858,1.56,41.72,41.72,0,0,0,6.417-5.514Q226.632,500.1,281.5,445.107c2.663-2.671,4.982-5.686,7.272-8.323C301.9,446,314.59,442.706,323.1,433.721c17.977-18.973,36.828-37.116,55.317-55.6,2.944-2.944,6.18-5.672,8.663-8.966,1.166-1.546,1.738-4.6.986-6.243a7.245,7.245,0,0,0-5.365-3.42c-1.749-.081-3.885,1.648-5.352,3.088q-21.919,21.523-43.624,43.266c-1.388,1.388-2.25,3.3-3.685,5.47Zm-66.18,5.494c-.8-1-1.17-1.556-1.632-2.019q-29.841-29.846-59.742-59.63a33.882,33.882,0,0,0-7.587-5.617,24.914,24.914,0,0,0-36.67,18.016c-1.726,10.684,3.32,18.657,10.39,25.749q28.211,28.3,56.512,56.508c.9.9,1.973,1.639,3.808,3.144,10.816-11.084,21.491-22.015,32.151-32.962C254.7,411.256,255.5,410.228,256.566,408.994Zm27.505,74.676c2.464,2.265,3.7,3.325,4.853,4.473q16.8,16.76,33.574,33.542c12.369,12.358,24.642,24.815,37.148,37.032,8.114,7.927,18.94,7.014,25.641-1.781,5.216-6.846,3.872-15.759-3.646-23.286q-39.894-39.944-79.807-79.867a90.71,90.71,0,0,1-6.186-7.564c-12.99,12.9-24.84,24.675-36.333,36.09l14.4,14.989Z"/><path d="M322.746,403.5l7.3,7.813c1.435-2.166,2.3-4.082,3.685-5.47q21.717-21.729,43.624-43.266c1.467-1.44,3.6-3.169,5.352-3.088a7.245,7.245,0,0,1,5.365,3.42c.752,1.639.18,4.7-.986,6.243-2.483,3.294-5.719,6.022-8.663,8.966-18.489,18.487-37.34,36.63-55.317,55.6-8.513,8.985-21.2,12.278-34.335,3.063-2.29,2.637-4.609,5.652-7.272,8.323q-54.854,55-109.809,109.908a41.72,41.72,0,0,1-6.417,5.514,16.129,16.129,0,0,1-19.858-1.56A16.3,16.3,0,0,1,141.99,538.9a26.6,26.6,0,0,1,4.546-5.89q57.962-57.9,116-115.734c1.163-1.16,2.177-2.47,3.291-3.745-.435-.787-.707-1.389-1.072-1.926-7.359-10.813-6.711-20.827,2.562-30.187q32-32.3,64.3-64.294c3.79-3.778,7.235-4.212,10.029-1.527,2.824,2.712,2.243,6.55-1.56,10.354q-21.9,21.909-43.783,43.825c-1.152,1.154-2.226,2.387-3.828,4.115l7.7,6.11c3.946-4.15,8.187-8.768,12.6-13.218q16.7-16.857,33.53-33.59c1.058-1.057,2.1-2.7,3.329-2.892,2.25-.344,5.355-.626,6.758.6,1.367,1.2,1.732,4.473,1.271,6.556-.414,1.874-2.422,3.491-3.937,5.011q-21.164,21.229-42.4,42.386c-1.15,1.15-2.222,2.379-3.258,3.493l6.763,7.549c9.582-9.833,18.714-19.269,27.921-28.631,6.656-6.768,13.459-13.39,20.1-20.173,2.834-2.895,5.875-4.176,9.1-1.116,3.377,3.206,1.727,6.369-.991,9.1q-22.048,22.11-44.145,44.175C325.522,400.533,324.3,401.875,322.746,403.5Z"/><path d="M256.566,408.994c-1.067,1.234-1.867,2.262-2.77,3.189-10.66,10.947-21.335,21.878-32.151,32.962-1.835-1.5-2.9-2.241-3.808-3.144q-28.278-28.232-56.512-56.508c-7.07-7.092-12.116-15.065-10.39-25.749a24.914,24.914,0,0,1,36.67-18.016,33.882,33.882,0,0,1,7.587,5.617q29.964,29.721,59.742,59.63C255.4,407.438,255.764,407.995,256.566,408.994Z"/><path d="M284.071,483.67,273.711,497.3l-14.4-14.989c11.493-11.415,23.343-23.187,36.333-36.09a90.71,90.71,0,0,0,6.186,7.564q39.844,39.993,79.807,79.867c7.518,7.527,8.862,16.44,3.646,23.286-6.7,8.8-17.527,9.708-25.641,1.781C347.14,546.5,334.867,534.043,322.5,521.685q-16.786-16.771-33.574-33.542C287.773,486.995,286.535,485.935,284.071,483.67Z"/></g></svg>