<svg xmlns="http://www.w3.org/2000/svg" width="29.719" height="51" viewBox="0 0 29.719 51"><defs><style>.a{fill:#f36a10;fill-rule:evenodd;}</style></defs><g transform="translate(14.86 25.5)"><path class="a" d="M23,0a7.542,7.542,0,0,0-4.908,2.634,15.324,15.324,0,0,0-3.232,7.3,15.324,15.324,0,0,0-3.232-7.3A6.584,6.584,0,0,0,6.716.239,5.986,5.986,0,0,0,2.047,2.873a14.127,14.127,0,0,0-2.035,7.9A51.359,51.359,0,0,0,3.484,30.049,129.416,129.416,0,0,0,14.857,51,168.8,168.8,0,0,0,25.871,30.289,47.648,47.648,0,0,0,29.7,10.775a14.486,14.486,0,0,0-2.035-8.141A5.986,5.986,0,0,0,23,0Z" transform="translate(-14.86 -25.5)"/></g></svg>