<svg xmlns="http://www.w3.org/2000/svg" width="45.693" height="65.753" viewBox="0 0 45.693 65.753"><defs><style>.a{fill:#016445;}</style></defs><g transform="translate(0 0)"><path class="a" d="M159.179,93.515h.428a.6.6,0,0,0,.126.035c.653.038,1.308.053,1.959.114.6.056,1.193.152,1.787.246a17.152,17.152,0,0,1,2.66.643c.777.255,1.552.53,2.3.861.826.365,1.643.759,2.43,1.2a16.545,16.545,0,0,1,2.591,1.757c.647.544,1.289,1.094,1.918,1.659a9.539,9.539,0,0,1,.85.876c.488.568.984,1.131,1.441,1.724a20.137,20.137,0,0,1,2.071,3.289c.258.516.495,1.043.724,1.573a25.985,25.985,0,0,1,1,2.815,20.862,20.862,0,0,1,.708,3.761c.013.154.046.306.07.459v4.259c-.011.012-.03.023-.031.037-.05.5-.091,1-.15,1.493-.05.424-.1.851-.189,1.268q-.256,1.187-.56,2.364a22.961,22.961,0,0,1-1.581,4.175,36.691,36.691,0,0,1-2.151,3.746q-.849,1.27-1.743,2.51c-.539.751-1.121,1.472-1.688,2.2q-.7.9-1.408,1.8c-.572.723-1.155,1.436-1.722,2.162-.549.7-1.094,1.408-1.621,2.127-.855,1.166-1.721,2.325-2.531,3.522-.7,1.028-1.342,2.091-1.982,3.156a19.841,19.841,0,0,0-1.423,2.84c-.467,1.167-.873,2.358-1.28,3.547a16.47,16.47,0,0,1-.931,2.487,1.777,1.777,0,0,1-1.11.979,4.186,4.186,0,0,1-.878.062,1.505,1.505,0,0,1-1.4-.758,7.323,7.323,0,0,1-.646-1.355c-.415-1.157-.78-2.332-1.188-3.492a26.791,26.791,0,0,0-1.7-3.776c-.464-.864-.979-1.7-1.525-2.515-.675-1.009-1.351-2.019-2.052-3.01-.662-.936-1.352-1.851-2.046-2.764-.606-.8-1.234-1.577-1.853-2.364-.579-.736-1.163-1.469-1.738-2.209-.642-.827-1.278-1.659-1.915-2.491a46.968,46.968,0,0,1-2.8-4.122,24.84,24.84,0,0,1-1.6-3.08c-.387-.9-.743-1.811-1.058-2.736a18.709,18.709,0,0,1-.609-2.241c-.191-.92-.311-1.857-.431-2.789a17.31,17.31,0,0,1-.144-1.812c-.019-.85,0-1.7.03-2.551.02-.5.1-1.326.164-1.825a18.156,18.156,0,0,1,.35-2.009c.224-.879.492-1.749.773-2.612a19.258,19.258,0,0,1,1.389-3.153,24.058,24.058,0,0,1,1.493-2.414,19.916,19.916,0,0,1,1.906-2.35c.652-.68,1.347-1.322,2.056-1.943q.633-.554,1.318-1.045a19.609,19.609,0,0,1,3.3-1.972c.833-.376,1.667-.753,2.523-1.069a17.928,17.928,0,0,1,3.642-.939c.986-.143,1.973-.289,2.968-.345.133-.007.385.018.519.022A.87.87,0,0,0,159.179,93.515Zm-.205,31.686a8.869,8.869,0,0,0,6.9-2.857,8.321,8.321,0,0,0,2.292-5.832,8.76,8.76,0,0,0-8.262-8.78,8.618,8.618,0,0,0-6.636,2.514,8.238,8.238,0,0,0-2.575,5.722,8.513,8.513,0,0,0,2.544,6.665A8.234,8.234,0,0,0,158.973,125.2Z" transform="translate(-136.546 -93.515)"/></g></svg>