<svg xmlns="http://www.w3.org/2000/svg" xmlns:xlink="http://www.w3.org/1999/xlink" width="70" height="70" viewBox="0 0 70 70"><defs><style>.a{fill:none;}.b{clip-path:url(#a);}.c{fill:#016445;fill-rule:evenodd;}</style><clipPath id="a"><rect class="a" width="70" height="70"/></clipPath></defs><g transform="translate(35 35)"><g class="b" transform="translate(-35 -35)"><path class="c" d="M44.318,22.413a3.894,3.894,0,0,1,3.7,2.044A4.381,4.381,0,0,1,48.6,26.6a4.186,4.186,0,0,1-.487,2.044,4.284,4.284,0,0,1-7.3.195,4.381,4.381,0,0,1,0-4.381,3.992,3.992,0,0,1,3.5-2.044m-18.595,0a3.894,3.894,0,0,1,3.7,2.044,4.219,4.219,0,0,1,0,4.284,3.894,3.894,0,0,1-3.7,2.142,3.894,3.894,0,0,1-3.6-2.142,4.089,4.089,0,0,1-.584-2.142,4.284,4.284,0,0,1,.584-2.239,3.992,3.992,0,0,1,3.6-1.947M35.069,5.084a28.817,28.817,0,0,0-21.224,8.762A28.915,28.915,0,0,0,5.084,35.069,28.817,28.817,0,0,0,13.846,56.2a28.915,28.915,0,0,0,21.224,8.762A28.915,28.915,0,0,0,56.2,56.2a28.72,28.72,0,0,0,8.762-21.126A28.817,28.817,0,0,0,56.2,13.943,28.817,28.817,0,0,0,35.069,5.084m0-4.284A33,33,0,0,1,59.311,10.828,33,33,0,0,1,69.338,35.069,33,33,0,0,1,59.311,59.311,33,33,0,0,1,35.069,69.338,33,33,0,0,1,10.828,59.311,33,33,0,0,1,.8,35.069,33,33,0,0,1,10.828,10.828,33,33,0,0,1,35.069.8M54.443,32.343h4.77a23.463,23.463,0,0,1-7.107,17.232,23.463,23.463,0,0,1-17.232,7.107A23.365,23.365,0,0,1,17.74,49.575a23.463,23.463,0,0,1-7.107-17.232H15.4a18.692,18.692,0,0,0,5.744,13.825,18.79,18.79,0,0,0,13.825,5.647A18.887,18.887,0,0,0,48.7,46.168a18.692,18.692,0,0,0,5.744-13.825" transform="translate(-0.021 -0.021)"/></g></g></svg>